<svg width="44" height="44" viewBox="0 0 44 44" fill="none" xmlns="http://www.w3.org/2000/svg">
<g id="Currency=Bitcoin Interest (BCI)">
<g id="Cjdowner-Cryptocurrency-Flat-Bitcoin-Diamond-BCD">
<path id="Oval" opacity="0.2" d="M22 44C34.1503 44 44 34.1503 44 22C44 9.84974 34.1503 0 22 0C9.84974 0 0 9.84974 0 22C0 34.1503 9.84974 44 22 44Z" fill="#D96100"/>
</g>
<path id="Shape" d="M21.6816 12.1506L21.6808 14.8682C22.1313 14.8592 22.5849 14.8503 23.0281 14.8503L23.0283 12.1509L24.7161 12.1508L24.7158 14.9227C26.826 15.1076 28.5113 15.7423 28.7899 17.5986L28.8125 17.7822C28.9555 19.2445 28.3436 20.1227 27.3656 20.6218C28.976 21.009 29.9846 21.9667 29.7857 24.1117C29.5399 26.7753 27.5536 27.4904 24.7165 27.6532L24.7159 30.4523L23.0281 30.4524L23.0289 27.6905C22.5916 27.6909 22.1436 27.688 21.6813 27.6783L21.6804 30.4523L19.9955 30.4517L19.9939 27.6481C19.5999 27.6455 19.198 27.6379 18.7896 27.6374L16.5925 27.6376L16.9273 25.6218C16.9273 25.6218 18.1662 25.6416 18.1544 25.6228C18.632 25.622 18.7588 25.2782 18.7888 25.063L18.7897 20.6384L18.9669 20.6385C18.8974 20.629 18.8359 20.6268 18.7888 20.6266L18.7884 17.4684C18.7242 17.1259 18.5016 16.7293 17.818 16.7291C17.8387 16.7061 16.5923 16.7297 16.5923 16.7297L16.5918 14.9273L18.9198 14.9276L18.9201 14.9366C19.2699 14.9363 19.6291 14.9298 19.9944 14.9223L19.9948 12.1504L21.6816 12.1506ZM21.7197 25.6367C22.8639 25.6359 26.4508 25.8738 26.4508 23.7787L26.4518 23.7785C26.4506 21.5933 22.8647 21.9219 21.7204 21.9216L21.7197 25.6367ZM21.7201 20.2208C22.6735 20.2207 25.6656 20.4427 25.6661 18.5365C25.6661 16.5482 22.6724 16.8512 21.7194 16.8514L21.7201 20.2208Z" fill="#D96100"/>
</g>
</svg>
